<?xml version="1.0" encoding="UTF-8" standalone="no"?>
<!-- Created with Inkscape (http://www.inkscape.org/) -->

<svg xmlns:dc="http://purl.org/dc/elements/1.1/" xmlns:cc="http://creativecommons.org/ns#" xmlns:rdf="http://www.w3.org/1999/02/22-rdf-syntax-ns#" xmlns:svg="http://www.w3.org/2000/svg" xmlns="http://www.w3.org/2000/svg" xmlns:sodipodi="http://sodipodi.sourceforge.net/DTD/sodipodi-0.dtd" xmlns:inkscape="http://www.inkscape.org/namespaces/inkscape" width="2000" height="2000" viewBox="0 0 529.16 529.16" version="1.1" id="svg4808" inkscape:version="0.92.5 (2060ec1f9f, 2020-04-08)" sodipodi:docname="asp95-logo-bottom.svg">
 <defs id="defs4802" />
 <sodipodi:namedview id="base" pagecolor="#ffffff" bordercolor="#666666" borderopacity="1.0" inkscape:pageopacity="0.0" inkscape:pageshadow="2" inkscape:zoom="0.250000002" inkscape:cx="205.140348" inkscape:cy="904.644268" inkscape:document-units="mm" inkscape:current-layer="layer1" showgrid="false" fit-margin-top="0" fit-margin-left="0" fit-margin-right="0" fit-margin-bottom="0" units="px" inkscape:window-width="1920" inkscape:window-height="1023" inkscape:window-x="0" inkscape:window-y="0" inkscape:window-maximized="1" inkscape:pagecheckerboard="true" borderlayer="true" />
 <metadata id="metadata4805">
  <rdf:RDF>
   <cc:Work rdf:about="">
    <dc:format>image/svg+xml</dc:format>
    <dc:type rdf:resource="http://purl.org/dc/dcmitype/StillImage" />
    <dc:title />
   </cc:Work>
  </rdf:RDF>
 </metadata>
 <g inkscape:label="Capa 1" inkscape:groupmode="layer" id="layer1" transform="translate(-80.713,335.821)">
  <path style="color:#000000;font-style:normal;font-variant:normal;font-weight:normal;font-stretch:normal;font-size:medium;line-height:normal;font-family:sans-serif;font-variant-ligatures:normal;font-variant-position:normal;font-variant-caps:normal;font-variant-numeric:normal;font-variant-alternates:normal;font-feature-settings:normal;text-indent:0;text-align:start;text-decoration:none;text-decoration-line:none;text-decoration-style:solid;text-decoration-color:#000000;letter-spacing:normal;word-spacing:normal;text-transform:none;writing-mode:lr-tb;direction:ltr;text-orientation:mixed;dominant-baseline:auto;baseline-shift:baseline;text-anchor:start;white-space:normal;shape-padding:0;clip-rule:nonzero;display:inline;overflow:visible;visibility:visible;opacity:1;isolation:auto;mix-blend-mode:normal;color-interpolation:sRGB;color-interpolation-filters:linearRGB;solid-color:#000000;solid-opacity:1;vector-effect:none;fill:#ffffff;fill-opacity:0.12888889;fill-rule:nonzero;stroke:none;stroke-width:7.574187756;stroke-linecap:round;stroke-linejoin:round;stroke-miterlimit:4;stroke-dasharray:none;stroke-dashoffset:0;stroke-opacity:1;color-rendering:auto;image-rendering:auto;shape-rendering:auto;text-rendering:auto;enable-background:accumulate" d="M 345.301637,-255.28769 A 3.78747217,3.78747217 0 0 0 344.436373,-255.151331 L 253.473458,-229.739918 A 3.78747217,3.78747217 0 0 0 251.27963,-224.085027 L 337.765615,-85.7439204 A 3.78747217,3.78747217 0 0 0 344.763309,-87.749364 V -140.614871 C 344.763309,-140.614871 344.781498,-141.455979 344.87941,-142.144419 A 3.78747217,3.78747217 0 0 0 344.927054,-142.18823 L 429.4881,-227.252006 A 3.78747217,3.78747217 0 0 0 427.771808,-233.581585 L 346.425386,-255.163378 A 3.78747217,3.78747217 0 0 0 345.301637,-255.28769 Z M 349.391382,-58.5214737 A 3.78747217,3.78747217 0 0 0 345.564503,-54.7356651 V -1.83675122 0.826951065 L 262.458527,84.7834057 A 3.78747217,3.78747217 0 0 0 264.164412,91.1047691 L 344.14448,112.678895 A 3.78747217,3.78747217 0 0 0 346.148283,112.66849 L 437.111193,87.2899359 A 3.78747217,3.78747217 0 0 0 439.302835,81.6290215 L 352.560555,-56.7454904 A 3.78747217,3.78747217 0 0 0 349.391382,-58.5214737 Z" id="path4786" inkscape:connector-curvature="0" />
 </g>
</svg>
