<?xml version="1.0" encoding="UTF-8" standalone="no"?>
<!-- Created with Inkscape (http://www.inkscape.org/) -->

<svg xmlns:dc="http://purl.org/dc/elements/1.1/" xmlns:cc="http://creativecommons.org/ns#" xmlns:rdf="http://www.w3.org/1999/02/22-rdf-syntax-ns#" xmlns:svg="http://www.w3.org/2000/svg" xmlns="http://www.w3.org/2000/svg" xmlns:sodipodi="http://sodipodi.sourceforge.net/DTD/sodipodi-0.dtd" xmlns:inkscape="http://www.inkscape.org/namespaces/inkscape" width="500" height="200" viewBox="0 0 132.29 52.92" version="1.1" id="svg8" inkscape:version="0.92.3 (2405546, 2018-03-11)" sodipodi:docname="a9os_logo.svg">
 <defs id="defs2" />
 <sodipodi:namedview id="base" pagecolor="#676767" bordercolor="#666666" borderopacity="1.0" inkscape:pageopacity="0" inkscape:pageshadow="2" inkscape:zoom="0.49497" inkscape:cx="243.8814" inkscape:cy="226.362421" inkscape:document-units="mm" inkscape:current-layer="layer1" showgrid="false" units="px" inkscape:pagecheckerboard="true" inkscape:window-width="1402" inkscape:window-height="871" inkscape:window-x="1958" inkscape:window-y="272" inkscape:window-maximized="1" />
 <metadata id="metadata5">
  <rdf:RDF>
   <cc:Work rdf:about="">
    <dc:format>image/svg+xml</dc:format>
    <dc:type rdf:resource="http://purl.org/dc/dcmitype/StillImage" />
    <dc:title></dc:title>
   </cc:Work>
  </rdf:RDF>
 </metadata>
 <g inkscape:label="Capa 1" inkscape:groupmode="layer" id="layer1" transform="translate(0,-244.09)">
  <g aria-label="os.com.ar" style="font-style:normal;font-weight:normal;font-size:29.592130661px;line-height:125%;font-family:sans-serif;letter-spacing:0px;word-spacing:0px;fill:#ffffff;fill-opacity:1;stroke:none;stroke-width:1.315199971px;stroke-linecap:butt;stroke-linejoin:miter;stroke-opacity:1" id="text4749-3" transform="matrix(0.993512519,0,0,0.993512519,-131.131813,282.446418)">
   <path d="M 148.86,-18.943 Q 151.7,-18.943 153.54,-17.049 155.37,-15.155 155.37,-12.255 155.37,-9.1777 153.48,-7.1062 151.58,-5.0348 148.8,-5.0348 146.02,-5.0348 144.15,-7.0175 142.32,-9.0297 142.32,-12.019 142.32,-15.067 144.12,-16.99 145.96,-18.943 148.86,-18.943 Z M 144.98,-13.469 Q 144.98,-10.302 146.14,-8.0828 147.29,-5.8634 149.16,-5.8634 150.81,-5.8634 151.76,-7.2838 152.71,-8.7042 152.71,-11.22 152.71,-14.268 151.52,-16.191 150.34,-18.115 148.47,-18.115 146.91,-18.115 145.93,-16.842 144.98,-15.57 144.98,-13.469 Z" style="font-style:normal;font-variant:normal;font-weight:normal;font-stretch:normal;font-family:FreeSerif;-inkscape-font-specification:FreeSerif;fill:#ffffff;fill-opacity:1;stroke-width:1.315199971px" id="path4808" inkscape:connector-curvature="0" />
   <path d="M 164.02,-18.351 Q 164.02,-18.351 164.49,-18.647 H 164.82 L 164.94,-14.623 H 164.49 Q 163.99,-16.605 163.25,-17.434 162.51,-18.262 161.24,-18.262 160.23,-18.262 159.58,-17.7 158.96,-17.138 158.96,-16.25 158.96,-14.978 160.23,-14.238 L 163.43,-12.344 Q 164.76,-11.545 165.32,-10.716 165.91,-9.9175 165.91,-8.8226 165.91,-7.2838 164.67,-6.1593 163.46,-5.0348 161.74,-5.0348 161,-5.0348 159.76,-5.3011 158.51,-5.5674 158.22,-5.5674 157.77,-5.5674 157.54,-5.2123 H 157.15 V -9.8287 H 157.63 Q 158.1,-7.7573 158.75,-6.8991 159.7,-5.6858 161.38,-5.6858 162.51,-5.6858 163.16,-6.2481 163.84,-6.8399 163.84,-7.8164 163.84,-9.1481 162.3,-10.036 L 160.59,-11.012 Q 158.69,-12.078 157.89,-13.054 157.12,-14.031 157.12,-15.274 157.12,-16.872 158.25,-17.878 159.4,-18.913 161.15,-18.913 162.12,-18.913 162.98,-18.618 163.84,-18.351 164.02,-18.351 Z" style="font-style:normal;font-variant:normal;font-weight:normal;font-stretch:normal;font-family:FreeSerif;-inkscape-font-specification:FreeSerif;fill:#ffffff;fill-opacity:1;stroke-width:1.315199971px" id="path4810" inkscape:connector-curvature="0" />
   <path d="M 170.65,-8.2899 Q 171.33,-8.2899 171.81,-7.7868 172.31,-7.2838 172.31,-6.6032 172.31,-5.9521 171.81,-5.4787 171.3,-5.0052 170.62,-5.0052 169.97,-5.0052 169.5,-5.4787 169.02,-5.9521 169.02,-6.6032 169.02,-7.2838 169.5,-7.7868 170,-8.2899 170.65,-8.2899 Z" style="font-style:normal;font-variant:normal;font-weight:normal;font-stretch:normal;font-family:FreeSerif;-inkscape-font-specification:FreeSerif;fill:#ffffff;fill-opacity:1;stroke-width:1.315199971px" id="path4812" inkscape:connector-curvature="0" />
   <path d="M 175.09,-11.634 Q 175.09,-14.919 177.01,-16.931 178.97,-18.943 181.57,-18.943 183.44,-18.943 184.77,-18.026 186.13,-17.138 186.13,-15.895 186.13,-15.392 185.71,-15.007 185.3,-14.652 184.71,-14.652 183.7,-14.652 183.32,-16.013 L 183.14,-16.664 Q 182.9,-17.493 182.55,-17.789 182.19,-18.085 181.39,-18.085 179.59,-18.085 178.46,-16.635 177.37,-15.214 177.37,-12.936 177.37,-10.391 178.64,-8.7634 179.94,-7.1654 181.96,-7.1654 183.23,-7.1654 184.15,-7.7573 185.06,-8.3787 186.13,-9.9471 L 186.54,-9.6807 Q 186.25,-9.0889 186.01,-8.7042 185.8,-8.3195 185.21,-7.5501 184.65,-6.7807 184.09,-6.3072 183.52,-5.8338 182.61,-5.4195 181.69,-5.0348 180.71,-5.0348 178.26,-5.0348 176.66,-6.8695 175.09,-8.7338 175.09,-11.634 Z" style="font-style:normal;font-variant:normal;font-weight:normal;font-stretch:normal;font-family:FreeSerif;-inkscape-font-specification:FreeSerif;fill:#ffffff;fill-opacity:1;stroke-width:1.315199971px" id="path4814" inkscape:connector-curvature="0" />
   <path d="M 194.46,-18.943 Q 197.3,-18.943 199.14,-17.049 200.97,-15.155 200.97,-12.255 200.97,-9.1777 199.08,-7.1062 197.18,-5.0348 194.4,-5.0348 191.62,-5.0348 189.76,-7.0175 187.92,-9.0297 187.92,-12.019 187.92,-15.067 189.73,-16.99 191.56,-18.943 194.46,-18.943 Z M 190.59,-13.469 Q 190.59,-10.302 191.74,-8.0828 192.89,-5.8634 194.76,-5.8634 196.41,-5.8634 197.36,-7.2838 198.31,-8.7042 198.31,-11.22 198.31,-14.268 197.12,-16.191 195.94,-18.115 194.08,-18.115 192.51,-18.115 191.53,-16.842 190.59,-15.57 190.59,-13.469 Z" style="font-style:normal;font-variant:normal;font-weight:normal;font-stretch:normal;font-family:FreeSerif;-inkscape-font-specification:FreeSerif;fill:#ffffff;fill-opacity:1;stroke-width:1.315199971px" id="path4816" inkscape:connector-curvature="0" />
   <path d="M 201.78,-17.108 V -17.611 Q 203.92,-18.203 205.93,-18.943 L 206.13,-18.883 V -16.663 Q 207.97,-18.054 208.86,-18.498 209.75,-18.942 210.72,-18.942 213.06,-18.942 213.86,-16.456 216.17,-18.942 218.68,-18.942 222.11,-18.942 222.11,-13.675 V -7.5787 Q 222.11,-5.9215 223.39,-5.8328 L 224.16,-5.7738 V -5.3299 H 217.68 V -5.7738 Q 218.98,-5.9217 219.3,-6.2768 219.63,-6.632 219.63,-7.9044 V -14.148 Q 219.63,-15.983 219.16,-16.693 218.68,-17.403 217.41,-17.403 215.46,-17.403 214.18,-15.598 V -8.1412 Q 214.18,-6.7503 214.6,-6.2768 215.04,-5.8034 216.31,-5.7738 V -5.3299 H 209.69 V -5.7738 Q 210.96,-5.8628 211.31,-6.2473 211.7,-6.632 211.7,-7.8748 V -14.296 Q 211.7,-17.403 209.75,-17.403 208.92,-17.403 207.88,-16.989 206.87,-16.575 206.25,-15.657 V -7.3126 Q 206.25,-6.4544 206.67,-6.1289 207.08,-5.833 208.27,-5.7738 V -5.3299 H 201.7 V -5.7738 Q 202.94,-5.8038 203.35,-6.2177 203.77,-6.632 203.77,-7.8452 V -15.332 Q 203.77,-16.397 203.53,-16.811 203.32,-17.226 202.73,-17.226 202.29,-17.226 201.78,-17.107 Z" style="font-style:normal;font-variant:normal;font-weight:normal;font-stretch:normal;font-family:FreeSerif;-inkscape-font-specification:FreeSerif;fill:#ffffff;fill-opacity:1;stroke-width:1.315199971px" id="path4818" inkscape:connector-curvature="0" />
   <path d="M 228.16,-8.2899 Q 228.84,-8.2899 229.31,-7.7868 229.82,-7.2838 229.82,-6.6032 229.82,-5.9521 229.31,-5.4787 228.81,-5.0052 228.13,-5.0052 227.48,-5.0052 227.01,-5.4787 226.53,-5.9521 226.53,-6.6032 226.53,-7.2838 227.01,-7.7868 227.51,-8.2899 228.16,-8.2899 Z" style="font-style:normal;font-variant:normal;font-weight:normal;font-stretch:normal;font-family:FreeSerif;-inkscape-font-specification:FreeSerif;fill:#ffffff;fill-opacity:1;stroke-width:1.315199971px" id="path4820" inkscape:connector-curvature="0" />
   <path d="M 232.6,-8.2011 Q 232.6,-8.7338 232.72,-9.1777 232.84,-9.6512 233.13,-10.036 233.43,-10.45 233.69,-10.776 233.96,-11.101 234.49,-11.427 235.03,-11.782 235.38,-11.989 235.74,-12.226 236.45,-12.522 237.19,-12.847 237.57,-12.995 237.96,-13.173 238.78,-13.498 239.61,-13.824 240,-13.972 V -15.777 Q 240,-18.233 237.75,-18.233 236.86,-18.233 236.24,-17.789 235.62,-17.375 235.62,-16.783 235.62,-16.546 235.72,-16.132 235.82,-15.718 235.82,-15.599 235.82,-15.096 235.4,-14.711 235.02,-14.356 234.48,-14.356 233.98,-14.356 233.6,-14.741 233.21,-15.126 233.21,-15.629 233.21,-17.02 234.63,-17.967 236.08,-18.943 238.18,-18.943 240.61,-18.943 241.53,-17.759 242.44,-16.605 242.44,-14.208 V -8.4379 Q 242.44,-7.4613 242.62,-7.0766 242.83,-6.7215 243.33,-6.7215 243.95,-6.7215 244.63,-7.2838 V -6.5144 Q 243.86,-5.6562 243.27,-5.3307 242.71,-5.0348 241.97,-5.0348 241.05,-5.0348 240.61,-5.5378 240.19,-6.0409 240.08,-7.195 237.53,-5.0348 235.76,-5.0348 234.39,-5.0348 233.51,-5.9225 232.65,-6.8103 232.65,-8.2011 Z M 240,-8.9705 V -13.261 Q 237.33,-12.285 236.27,-11.367 235.2,-10.45 235.2,-9.1481 235.2,-7.9348 235.79,-7.343 236.39,-6.7511 237.07,-6.7511 238.07,-6.7511 239.23,-7.4317 239.7,-7.6981 239.85,-7.994 240,-8.2899 240,-8.9705 Z" style="font-style:normal;font-variant:normal;font-weight:normal;font-stretch:normal;font-family:FreeSerif;-inkscape-font-specification:FreeSerif;fill:#ffffff;fill-opacity:1;stroke-width:1.315199971px" id="path4822" inkscape:connector-curvature="0" />
   <path d="M 253.66,-16.043 Q 253.21,-16.043 252.56,-16.546 251.91,-17.079 251.7,-17.079 251.11,-17.079 250.37,-16.221 249.63,-15.362 249.63,-14.652 V -7.994 Q 249.63,-6.7215 250.13,-6.2776 250.64,-5.8338 252.15,-5.7746 V -5.3307 H 245.04 V -5.7746 Q 246.46,-6.0409 246.79,-6.3664 247.14,-6.6919 247.14,-7.8164 V -15.214 Q 247.14,-16.191 246.91,-16.576 246.7,-16.99 246.14,-16.99 245.67,-16.99 245.1,-16.872 V -17.345 Q 247.47,-18.115 249.48,-18.943 L 249.63,-18.883 V -16.16 Q 250.73,-17.729 251.49,-18.321 252.26,-18.942 253.18,-18.942 253.95,-18.942 254.37,-18.528 254.81,-18.114 254.81,-17.374 254.81,-16.752 254.48,-16.397 254.19,-16.042 253.66,-16.042 Z" style="font-style:normal;font-variant:normal;font-weight:normal;font-stretch:normal;font-family:FreeSerif;-inkscape-font-specification:FreeSerif;fill:#ffffff;fill-opacity:1;stroke-width:1.315199971px" id="path4824" inkscape:connector-curvature="0" />
  </g>
 </g>
</svg>
