<?xml version="1.0" encoding="UTF-8" standalone="no"?>
<svg xmlns:dc="http://purl.org/dc/elements/1.1/" xmlns:cc="http://creativecommons.org/ns#" xmlns:rdf="http://www.w3.org/1999/02/22-rdf-syntax-ns#" xmlns:svg="http://www.w3.org/2000/svg" xmlns="http://www.w3.org/2000/svg" xmlns:sodipodi="http://sodipodi.sourceforge.net/DTD/sodipodi-0.dtd" xmlns:inkscape="http://www.inkscape.org/namespaces/inkscape" height="300px" width="300px" fill="#ffffff" version="1.1" x="0px" y="0px" viewBox="0 0 100 100" xml:space="preserve" id="svg6" sodipodi:docname="icon.svg" inkscape:version="0.92.5 (2060ec1f9f, 2020-04-08)"><metadata id="metadata12"><rdf:RDF><cc:Work rdf:about=""><dc:format>image/svg+xml</dc:format><dc:type rdf:resource="http://purl.org/dc/dcmitype/StillImage" /><dc:title></dc:title></cc:Work></rdf:RDF></metadata><defs id="defs10" /><sodipodi:namedview pagecolor="#8b8b8b" bordercolor="#666666" borderopacity="1" objecttolerance="10" gridtolerance="10" guidetolerance="10" inkscape:pageopacity="0" inkscape:pageshadow="2" inkscape:window-width="1920" inkscape:window-height="1005" id="namedview8" showgrid="false" inkscape:zoom="1.11251938" inkscape:cx="185.123141" inkscape:cy="133.185485" inkscape:window-x="1920" inkscape:window-y="38" inkscape:window-maximized="1" inkscape:current-layer="svg6" /><path style="opacity:1;fill:#ffffff;fill-opacity:0.996688723;fill-rule:nonzero;stroke:#000000;stroke-width:3.000000003;stroke-linecap:round;stroke-linejoin:round;stroke-miterlimit:4;stroke-dasharray:none;stroke-dashoffset:0;stroke-opacity:0.405010015;paint-order:normal" d="M 150 37.6425781 A 112.35759 112.35759 0 0 0 37.6425781 150 A 112.35759 112.35759 0 0 0 150 262.357422 A 112.35759 112.35759 0 0 0 262.357422 150 A 112.35759 112.35759 0 0 0 150 37.6425781 z M 131.623047 83.1054688 L 168.378906 83.1054688 L 168.378906 133.105469 L 213.515625 133.105469 L 213.515625 166.888672 L 168.378906 166.888672 L 168.378906 216.892578 L 131.623047 216.892578 L 131.623047 166.888672 L 86.4863281 166.888672 L 86.4863281 133.105469 L 131.623047 133.105469 L 131.623047 83.1054688 z " transform="scale(0.333333333)" id="path836" /></svg>