<?xml version="1.0" encoding="UTF-8" standalone="no"?>
<svg xmlns:dc="http://purl.org/dc/elements/1.1/" xmlns:cc="http://creativecommons.org/ns#" xmlns:rdf="http://www.w3.org/1999/02/22-rdf-syntax-ns#" xmlns:svg="http://www.w3.org/2000/svg" xmlns="http://www.w3.org/2000/svg" xmlns:sodipodi="http://sodipodi.sourceforge.net/DTD/sodipodi-0.dtd" xmlns:inkscape="http://www.inkscape.org/namespaces/inkscape" height="300px" width="300px" fill="#ffffff" version="1.1" x="0px" y="0px" viewBox="0 0 100 100" xml:space="preserve" id="svg6" sodipodi:docname="gear-icon.svg" inkscape:version="0.92.3 (2405546, 2018-03-11)"><metadata id="metadata12"><rdf:RDF><cc:Work rdf:about=""><dc:format>image/svg+xml</dc:format><dc:type rdf:resource="http://purl.org/dc/dcmitype/StillImage" /><dc:title></dc:title></cc:Work></rdf:RDF></metadata><defs id="defs10" /><sodipodi:namedview pagecolor="#8b8b8b" bordercolor="#666666" borderopacity="1" objecttolerance="10" gridtolerance="10" guidetolerance="10" inkscape:pageopacity="0" inkscape:pageshadow="2" inkscape:window-width="1328" inkscape:window-height="739" id="namedview8" showgrid="false" inkscape:zoom="0.55626" inkscape:cx="105.06" inkscape:cy="137.93" inkscape:window-x="38" inkscape:window-y="66" inkscape:window-maximized="1" inkscape:current-layer="svg6" /><path id="path4782" d="m 86.158,54.853 v -9.707 c -4.95,-1.622 -8.086,-2.164 -9.654,-6.058 -1.623,-3.812 0.269,-6.409 2.434,-11.143 l -6.871,-6.869 c -4.706,2.163 -7.328,4.138 -11.142,2.436 -3.812,-1.624 -4.327,-4.734 -6.084,-9.682 h -9.682 c -1.892,4.92 -2.161,8.086 -6.084,9.682 -3.812,1.622 -6.408,-0.273 -11.143,-2.436 l -6.868,6.869 c 2.162,4.707 4.137,7.331 2.434,11.143 -1.623,3.813 -4.761,4.326 -9.656,6.058 v 9.707 c 4.895,1.623 8.086,2.165 9.656,6.086 1.62,3.841 -0.272,6.49 -2.434,11.14 l 6.868,6.871 c 4.707,-2.164 7.331,-4.139 11.143,-2.433 3.812,1.622 4.327,4.733 6.084,9.654 h 9.682 c 1.892,-4.896 2.165,-8.087 6.111,-9.681 v 0 c 3.787,-1.624 6.357,0.269 11.115,2.434 l 6.871,-6.869 c -2.165,-4.679 -4.14,-7.302 -2.434,-11.115 1.622,-3.814 4.758,-4.354 9.654,-6.087 z m -36.05,7.168 c -6.624,0 -12.006,-5.383 -12.006,-12.009 0,-6.651 5.382,-12.034 12.006,-12.034 6.625,0 12.007,5.384 12.007,12.034 0,6.626 -5.382,12.009 -12.007,12.009 z" inkscape:connector-curvature="0" style="fill:#ffffff;fill-opacity:1;stroke:#000000;stroke-width:1;stroke-miterlimit:4;stroke-dasharray:none;stroke-opacity:0.40392" sodipodi:nodetypes="ccccccccccccccccccccccccccsssss" /></svg>