<?xml version="1.0" encoding="UTF-8" standalone="no"?>
<svg xmlns:dc="http://purl.org/dc/elements/1.1/" xmlns:cc="http://creativecommons.org/ns#" xmlns:rdf="http://www.w3.org/1999/02/22-rdf-syntax-ns#" xmlns:svg="http://www.w3.org/2000/svg" xmlns="http://www.w3.org/2000/svg" xmlns:sodipodi="http://sodipodi.sourceforge.net/DTD/sodipodi-0.dtd" xmlns:inkscape="http://www.inkscape.org/namespaces/inkscape" height="30" width="30" version="1.1" x="0px" y="0px" viewBox="0 0 10 10" xml:space="preserve" id="svg6" sodipodi:docname="new-folder-icon.svg" inkscape:version="0.92.3 (2405546, 2018-03-11)" style="fill:#ffffff"><metadata id="metadata12"><rdf:RDF><cc:Work rdf:about=""><dc:format>image/svg+xml</dc:format><dc:type rdf:resource="http://purl.org/dc/dcmitype/StillImage" /><dc:title></dc:title></cc:Work></rdf:RDF></metadata><defs id="defs10" /><sodipodi:namedview pagecolor="#8b8b8b" bordercolor="#666666" borderopacity="1" objecttolerance="10" gridtolerance="10" guidetolerance="10" inkscape:pageopacity="0" inkscape:pageshadow="2" inkscape:window-width="1402" inkscape:window-height="871" id="namedview8" showgrid="false" inkscape:zoom="6.2934" inkscape:cx="5.04957835" inkscape:cy="12.3123933" inkscape:window-x="1404" inkscape:window-y="0" inkscape:window-maximized="1" inkscape:current-layer="g4758" /><g id="g4758" transform="matrix(0.09946,0,0,0.09946,0.0272,8.9791)"><g id="g4771" transform="matrix(0.782214686,0,0,0.782214686,90.2037747,-8.47940806)"><path style="fill:#646464;fill-opacity:1;stroke:none;stroke-width:1.567431092" d="M -95.2747416,-80.5029386 V -72.6657826 -38.1822959 C -95.2747416,-37.3143618 -94.5756676,-36.6148642 -93.7073106,-36.6148642 H -9.06602434 C -8.19768314,-36.6148642 -7.49859334,-37.3143618 -7.49859334,-38.1822959 V -72.6504696 C -7.49859334,-72.6551716 -7.50172874,-72.6598736 -7.50172874,-72.6661436 H -7.49859334 V -74.2335746 H -51.3866676 L -57.6563926,-80.5032996 H -95.2747416 Z" id="rect4180-3" inkscape:connector-curvature="0" sodipodi:nodetypes="ccsssssccccccc" /><path style="fill:#ffffff;fill-opacity:1;stroke:none;stroke-width:1.567431092" d="M -60.7912546,-64.8286266 -96.8687116,-64.8667446 -96.8421736,-58.5589017 V -56.9914707 H -96.8390386 C -96.8391166,-56.9852008 -96.8421736,-56.9789308 -96.8421736,-56.9731316 L -94.3689376,-0.563977849 V 1.00345385 H -92.8867906 -9.88654494 -8.40439814 V -0.563977849 L -5.93116234,-56.9731316 V -56.9914707 -64.8286266 Z" id="rect4113-0-6" inkscape:connector-curvature="0" sodipodi:nodetypes="cccccscccccccccc" /></g><g transform="translate(0,-90)" id="text4787" style="font-style:normal;font-weight:normal;font-size:8.31898px;line-height:125%;font-family:sans-serif;letter-spacing:0px;word-spacing:0px;fill:#646464;fill-opacity:1;stroke:none;stroke-width:0.36973px;stroke-linecap:butt;stroke-linejoin:miter;stroke-opacity:1" aria-label="+"><path inkscape:connector-curvature="0" id="path4789" style="font-style:normal;font-variant:normal;font-weight:bold;font-stretch:normal;font-size:70.98931px;font-family:sans-serif;-inkscape-font-specification:'sans-serif Bold';fill:#646464;fill-opacity:1;stroke-width:0.36973px" d="m 53.213,52.251 h 13.417 v 7.596 h -13.417 v 13.346 h -7.595 v -13.346 h -13.417 v -7.596 h 13.417 v -13.488 h 7.595 z" /></g></g></svg>