<?xml version="1.0" encoding="UTF-8" standalone="no"?>
<svg xmlns:dc="http://purl.org/dc/elements/1.1/" xmlns:cc="http://creativecommons.org/ns#" xmlns:rdf="http://www.w3.org/1999/02/22-rdf-syntax-ns#" xmlns:svg="http://www.w3.org/2000/svg" xmlns="http://www.w3.org/2000/svg" xmlns:sodipodi="http://sodipodi.sourceforge.net/DTD/sodipodi-0.dtd" xmlns:inkscape="http://www.inkscape.org/namespaces/inkscape" height="30" width="30" version="1.1" x="0px" y="0px" viewBox="0 0 10 10" xml:space="preserve" id="svg6" sodipodi:docname="sidebar-folder-icon.svg" inkscape:version="0.92.5 (2060ec1f9f, 2020-04-08)" style="fill:#ffffff"><metadata id="metadata12"><rdf:RDF><cc:Work rdf:about=""><dc:format>image/svg+xml</dc:format><dc:type rdf:resource="http://purl.org/dc/dcmitype/StillImage" /><dc:title></dc:title></cc:Work></rdf:RDF></metadata><defs id="defs10" /><sodipodi:namedview pagecolor="#dddddd" bordercolor="#666666" borderopacity="1" objecttolerance="10" gridtolerance="10" guidetolerance="10" inkscape:pageopacity="1" inkscape:pageshadow="2" inkscape:window-width="1920" inkscape:window-height="1005" id="namedview8" showgrid="false" inkscape:zoom="8.90021163" inkscape:cx="12.8613763" inkscape:cy="16.9019415" inkscape:window-x="1920" inkscape:window-y="38" inkscape:window-maximized="1" inkscape:current-layer="g4758" /><g id="g4758" transform="matrix(0.09946,0,0,0.09946,0.0272,8.9791)"><g id="g821" transform="translate(-1.08636645e-7,0.88329065)"><path style="fill:#646464;fill-opacity:1;stroke:none;stroke-width:1.491387606" d="M 10.4507209,-80.5029369 V -72.6316385 -37.9979252 C 10.4507209,-37.1262099 11.0808643,-36.423665 11.863599,-36.423665 H 88.1590339 C 88.9417545,-36.423665 89.5719123,-37.1262099 89.5719123,-37.9979252 V -72.6162588 C 89.5719123,-72.6209812 89.5690859,-72.6257037 89.5690859,-72.632001 H 89.5719123 V -74.2062605 H 50.0113164 L 44.3598026,-80.5032995 H 10.4507209 Z" id="rect4180-3" inkscape:connector-curvature="0" sodipodi:nodetypes="ccsssssccccccc" /><path style="fill:#909090;fill-opacity:1;stroke:none;stroke-width:1.438477397;stroke-opacity:1" d="M 40.5657585,-56.48242 4.3311308,-56.5143848 4.35778441,-51.2247925 V -49.9103859 H 4.36093307 C 4.36085473,-49.905128 4.35778441,-49.8998702 4.35778441,-49.8950072 L 6.84179501,-2.59176506 V -1.27735781 H 8.33039895 91.6922335 93.1808373 V -2.59176506 L 95.6648477,-49.8950072 V -49.9103859 -56.48242 Z" id="rect4113-0-6" inkscape:connector-curvature="0" sodipodi:nodetypes="cccccscccccccccc" /></g></g></svg>