<?xml version="1.0" encoding="UTF-8" standalone="no"?>
<!-- Created with Inkscape (http://www.inkscape.org/) -->

<svg xmlns:dc="http://purl.org/dc/elements/1.1/" xmlns:cc="http://creativecommons.org/ns#" xmlns:rdf="http://www.w3.org/1999/02/22-rdf-syntax-ns#" xmlns:svg="http://www.w3.org/2000/svg" xmlns="http://www.w3.org/2000/svg" xmlns:sodipodi="http://sodipodi.sourceforge.net/DTD/sodipodi-0.dtd" xmlns:inkscape="http://www.inkscape.org/namespaces/inkscape" width="20" height="20" viewBox="0 0 5.2917 5.2918" version="1.1" id="svg8" inkscape:version="0.92.3 (2405546, 2018-03-11)" sodipodi:docname="star-icon.svg">
 <defs id="defs2" />
 <sodipodi:namedview id="base" pagecolor="#ffffff" bordercolor="#666666" borderopacity="1.0" inkscape:pageopacity="0.0" inkscape:pageshadow="2" inkscape:zoom="11.2" inkscape:cx="1.5193" inkscape:cy="23.964" inkscape:document-units="mm" inkscape:current-layer="g4767" showgrid="false" units="px" showguides="true" inkscape:guide-bbox="true" inkscape:measure-start="-24.9381,23.0125" inkscape:measure-end="-21.9393,23.0125" inkscape:window-width="1402" inkscape:window-height="871" inkscape:window-x="1404" inkscape:window-y="0" inkscape:window-maximized="1" inkscape:pagecheckerboard="true">
  <sodipodi:guide position="1.6704,2.6459" orientation="0,1" id="guide4747" inkscape:locked="false" inkscape:label="" inkscape:color="rgb(0,0,255)" />
 </sodipodi:namedview>
 <metadata id="metadata5">
  <rdf:RDF>
   <cc:Work rdf:about="">
    <dc:format>image/svg+xml</dc:format>
    <dc:type rdf:resource="http://purl.org/dc/dcmitype/StillImage" />
    <dc:title></dc:title>
   </cc:Work>
  </rdf:RDF>
 </metadata>
 <g inkscape:label="Capa 1" inkscape:groupmode="layer" id="layer1" transform="translate(0,-291.71)">
  <g id="g4767" transform="matrix(1.2962,0,0,1.2962,-0.49066,-87.164)">
   <path sodipodi:type="star" style="opacity:1;fill:#242424;fill-opacity:1;fill-rule:nonzero;stroke:none;stroke-width:0;stroke-linecap:round;stroke-linejoin:bevel;stroke-miterlimit:4;stroke-dasharray:none;stroke-opacity:1;paint-order:normal" id="path4754" sodipodi:sides="5" sodipodi:cx="2.0024" sodipodi:cy="289.19" sodipodi:r1="2.3598" sodipodi:r2="1.2218" sodipodi:arg1="1.4382" sodipodi:arg2="2.0666" inkscape:flatsided="false" inkscape:rounded="0.074782" inkscape:randomized="0" d="m 2.3144,291.53 c -0.1148,0 -0.7914,-1.21 -0.8933,-1.27 -0.1018,-0.1 -1.49689,0.1 -1.54689,-0.1 -0.05,-0.1 0.90559,-1.13 0.92649,-1.24 0.0209,-0.11 -0.50942,-1.41 -0.42558,-1.49 0.0838,-0.1 1.35108,0.51 1.46588,0.5 0.1147,-0 1.1821,-0.92 1.2839,-0.87 0.1018,0.1 -0.071,1.45 -0.021,1.55 0.05,0.11 1.24,0.84 1.2191,0.96 -0.021,0.11 -1.3947,0.38 -1.4785,0.45 -0.084,0.1 -0.4158,1.44 -0.5305,1.46 z" inkscape:transform-center-x="0.43834" inkscape:transform-center-y="-0.24581" transform="matrix(0.57852,-0.31167,0.31167,0.57852,-88.871,127.81)" />
  </g>
 </g>
</svg>
