<?xml version="1.0" encoding="UTF-8" standalone="no"?>
<!-- Created with Inkscape (http://www.inkscape.org/) -->

<svg xmlns:dc="http://purl.org/dc/elements/1.1/" xmlns:cc="http://creativecommons.org/ns#" xmlns:rdf="http://www.w3.org/1999/02/22-rdf-syntax-ns#" xmlns:svg="http://www.w3.org/2000/svg" xmlns="http://www.w3.org/2000/svg" xmlns:sodipodi="http://sodipodi.sourceforge.net/DTD/sodipodi-0.dtd" xmlns:inkscape="http://www.inkscape.org/namespaces/inkscape" width="20" height="20" viewBox="0 0 20 20" id="svg2" version="1.1" inkscape:version="0.92.5 (2060ec1f9f, 2020-04-08)" sodipodi:docname="tag-icon.svg">
 <defs id="defs4" />
 <sodipodi:namedview id="base" pagecolor="#808080" bordercolor="#666666" borderopacity="1.0" inkscape:pageopacity="0" inkscape:pageshadow="2" inkscape:zoom="7.91959588" inkscape:cx="3.3144331" inkscape:cy="1.20698105" inkscape:document-units="px" inkscape:current-layer="layer1" showgrid="false" units="px" showguides="true" inkscape:guide-bbox="true" inkscape:window-width="1920" inkscape:window-height="1005" inkscape:window-x="1920" inkscape:window-y="38" inkscape:window-maximized="1">
  <sodipodi:guide position="-56.160714,43.571429" orientation="1,0" id="guide4138" inkscape:locked="false" />
  <sodipodi:guide position="2.7678572,2.7678572" orientation="-0.70710678,0.70710678" id="guide4140" inkscape:locked="false" />
 </sodipodi:namedview>
 <metadata id="metadata7">
  <rdf:RDF>
   <cc:Work rdf:about="">
    <dc:format>image/svg+xml</dc:format>
    <dc:type rdf:resource="http://purl.org/dc/dcmitype/StillImage" />
    <dc:title></dc:title>
   </cc:Work>
  </rdf:RDF>
 </metadata>
 <g inkscape:label="Capa 1" inkscape:groupmode="layer" id="layer1" transform="translate(0,-1032.3622)">
  <path style="opacity:1;fill:#ffffff;fill-opacity:1;stroke:none;stroke-width:1;stroke-linecap:round;stroke-linejoin:round;stroke-miterlimit:4;stroke-dasharray:none;stroke-dashoffset:0;stroke-opacity:1" d="M 19.2558594,0.189453125 C 19.2552065,0.190102367 19.2545555,0.190753411 19.2539062,0.19140625 L 10.7929688,1.203125 C 10.6814415,1.21618953 10.5775573,1.26641169 10.4980469,1.34570312 L 0.333984375,11.5097656 C 0.138800144,11.7050305 0.138800144,12.021532 0.333984375,12.2167969 L 7.78320312,19.6660156 C 7.97846805,19.8611998 8.29496945,19.8611998 8.49023438,19.6660156 L 18.65625,9.50195312 C 18.7355414,9.42244276 18.7857636,9.31855857 18.7988281,9.20703125 L 19.8085938,0.748046875 C 19.8439128,0.448593394 19.6081525,0.186229847 19.3066406,0.189453125 19.2897245,0.188593079 19.2727755,0.188593079 19.2558594,0.189453125 Z M 14.4296875,2.48046875 C 15.4984647,2.4268617 16.5122843,2.95694878 17.078125,3.86523438 17.9335895,5.23947381 17.5202087,7.04648873 16.1523438,7.91210938 14.7840762,8.77831984 12.973201,8.37793847 12.0976562,7.015625 11.2223059,5.6532439 11.6104694,3.83977923 12.9667969,2.95507812 L 13.0371094,2.91015625 C 13.4579978,2.65257613 13.9368374,2.50482755 14.4296875,2.48046875 Z M 6.42773438,8.01171875 C 6.56321755,8.01171874 6.69290211,8.06669371 6.78710938,8.1640625 L 11.8378906,13.2148438 C 12.3287172,13.6860982 11.6021138,14.4127016 11.1308594,13.921875 L 6.08007812,8.87109375 C 5.75714741,8.5585586 5.97833205,8.01181007 6.42773438,8.01171875 Z M 3.96484375,10.4746094 C 4.10004021,10.4740966 4.22968307,10.5283493 4.32421875,10.625 L 9.375,15.6757812 C 9.84765606,16.1471352 9.14062481,16.8561196 8.66796875,16.3847656 L 3.6171875,11.3339844 C 3.2942568,11.0214493 3.51544143,10.4747007 3.96484375,10.4746094 Z" transform="translate(0,1032.3622)" id="rect4142" inkscape:connector-curvature="0" sodipodi:nodetypes="cccccccccccccccccccccccccccccccc" />
 </g>
</svg>
