<?xml version="1.0" encoding="UTF-8" standalone="no"?>
<!-- Created with Inkscape (http://www.inkscape.org/) -->

<svg xmlns:dc="http://purl.org/dc/elements/1.1/" xmlns:cc="http://creativecommons.org/ns#" xmlns:rdf="http://www.w3.org/1999/02/22-rdf-syntax-ns#" xmlns:svg="http://www.w3.org/2000/svg" xmlns="http://www.w3.org/2000/svg" xmlns:xlink="http://www.w3.org/1999/xlink" xmlns:sodipodi="http://sodipodi.sourceforge.net/DTD/sodipodi-0.dtd" xmlns:inkscape="http://www.inkscape.org/namespaces/inkscape" width="600" height="150" viewBox="0 0 158.75 39.693" version="1.1" id="svg8" inkscape:export-filename="/home/santiago/RPI/var/www/html/resources/img/a9os_header.png" inkscape:export-xdpi="96" inkscape:export-ydpi="96" inkscape:version="0.92.5 (2060ec1f9f, 2020-04-08)" sodipodi:docname="a9os_header.svg">
 <defs id="defs2">
  <linearGradient inkscape:collect="always" id="linearGradient837">
   <stop style="stop-color:#2894c8;stop-opacity:1" offset="0" id="stop833" />
   <stop style="stop-color:#e88200;stop-opacity:1" offset="1" id="stop835" />
  </linearGradient>
  <linearGradient inkscape:collect="always" xlink:href="#linearGradient837" id="linearGradient839" x1="591.546143" y1="-51.1294098" x2="734.598389" y2="309.876038" gradientUnits="userSpaceOnUse" gradientTransform="matrix(0.989652977,0,0,0.952476089,2.39744543,0.557587708)" />
 </defs>
 <sodipodi:namedview id="base" pagecolor="#ffffff" bordercolor="#666666" borderopacity="1.0" inkscape:pageopacity="0.0" inkscape:pageshadow="2" inkscape:zoom="0.989949495" inkscape:cx="349.997809" inkscape:cy="124.891092" inkscape:document-units="mm" inkscape:current-layer="layer1-6" showgrid="false" units="px" borderlayer="true" inkscape:pagecheckerboard="true" inkscape:window-width="1452" inkscape:window-height="703" inkscape:window-x="390" inkscape:window-y="320" inkscape:window-maximized="0" inkscape:measure-start="45.0897,200.002" inkscape:measure-end="45.0897,185.984" showguides="true" inkscape:guide-bbox="true" inkscape:snap-global="false">
  <sodipodi:guide position="-5.2917,48.766" orientation="1,0" id="guide4752" inkscape:locked="false" />
  <sodipodi:guide position="-12.662,54.436" orientation="0,1" id="guide4754" inkscape:locked="false" />
 </sodipodi:namedview>
 <metadata id="metadata5">
  <rdf:RDF>
   <cc:Work rdf:about="">
    <dc:format>image/svg+xml</dc:format>
    <dc:type rdf:resource="http://purl.org/dc/dcmitype/StillImage" />
    <dc:title />
   </cc:Work>
  </rdf:RDF>
 </metadata>
 <g inkscape:label="Capa 1" inkscape:groupmode="layer" id="layer1" transform="translate(0,-257.36)">
  <g transform="matrix(0.21277,0,0,0.21277,-24.556,254.51)" id="layer1-6" inkscape:label="Capa 1">
   <rect style="opacity:1;fill:url(#linearGradient839);fill-opacity:1;fill-rule:evenodd;stroke:none;stroke-width:3.491240263;stroke-linecap:round;stroke-linejoin:round;stroke-miterlimit:4;stroke-dasharray:none;stroke-dashoffset:0;stroke-opacity:1;paint-order:stroke markers fill" id="rect831" width="747.256836" height="187.269974" x="115.297058" y="13.3064804" ry="0" />
   <rect y="13.385" x="114.08" height="268.92" width="755.01" id="rect9488" style="opacity:0;fill:#444444;fill-opacity:1;fill-rule:nonzero;stroke:none;stroke-width:0.89866;stroke-linecap:round;stroke-linejoin:bevel;stroke-miterlimit:4;stroke-dasharray:none;stroke-opacity:1;paint-order:normal" />
   <g aria-label="os.com.ar" style="font-style:normal;font-weight:normal;font-size:29.59213px;line-height:125%;font-family:sans-serif;letter-spacing:0px;word-spacing:0px;fill:#ffffff;fill-opacity:1;stroke:none;stroke-width:1.3152px;stroke-linecap:butt;stroke-linejoin:miter;stroke-opacity:1" id="text4749" transform="matrix(0.87253,0,0,0.87253,12.394,49.842)">
    <path d="m 148.86,-18.943 q 2.84,0 4.68,1.894 1.83,1.894 1.83,4.794 0,3.0773 -1.89,5.1488 -1.9,2.0714 -4.68,2.0714 -2.78,0 -4.65,-1.9827 -1.83,-2.0122 -1.83,-5.0015 0,-3.048 1.8,-4.971 1.84,-1.953 4.74,-1.953 z m -3.88,5.474 q 0,3.167 1.16,5.3862 1.15,2.2194 3.02,2.2194 1.65,0 2.6,-1.4204 0.95,-1.4204 0.95,-3.9362 0,-3.048 -1.19,-4.971 -1.18,-1.924 -3.05,-1.924 -1.56,0 -2.54,1.273 -0.95,1.272 -0.95,3.373 z" style="font-style:normal;font-variant:normal;font-weight:normal;font-stretch:normal;font-family:FreeSerif;-inkscape-font-specification:FreeSerif;fill:#ffffff;fill-opacity:1;stroke-width:1.3152px" id="path4808" inkscape:connector-curvature="0" />
    <path d="m 164.02,-18.351 q 0,0 0.47,-0.296 h 0.33 l 0.12,4.024 h -0.45 q -0.5,-1.982 -1.24,-2.811 -0.74,-0.828 -2.01,-0.828 -1.01,0 -1.66,0.562 -0.62,0.562 -0.62,1.45 0,1.272 1.27,2.012 l 3.2,1.894 q 1.33,0.799 1.89,1.628 0.59,0.7985 0.59,1.8934 0,1.5388 -1.24,2.6633 -1.21,1.1245 -2.93,1.1245 -0.74,0 -1.98,-0.2663 -1.25,-0.2663 -1.54,-0.2663 -0.45,0 -0.68,0.3551 h -0.39 v -4.6164 h 0.48 q 0.47,2.0714 1.12,2.9296 0.95,1.2133 2.63,1.2133 1.13,0 1.78,-0.5623 0.68,-0.5918 0.68,-1.5683 0,-1.3317 -1.54,-2.2196 l -1.71,-0.976 q -1.9,-1.066 -2.7,-2.042 -0.77,-0.977 -0.77,-2.22 0,-1.598 1.13,-2.604 1.15,-1.035 2.9,-1.035 0.97,0 1.83,0.295 0.86,0.267 1.04,0.267 z" style="font-style:normal;font-variant:normal;font-weight:normal;font-stretch:normal;font-family:FreeSerif;-inkscape-font-specification:FreeSerif;fill:#ffffff;fill-opacity:1;stroke-width:1.3152px" id="path4810" inkscape:connector-curvature="0" />
    <path d="m 170.65,-8.2899 q 0.68,0 1.16,0.5031 0.5,0.503 0.5,1.1836 0,0.6511 -0.5,1.1245 -0.51,0.4735 -1.19,0.4735 -0.65,0 -1.12,-0.4735 -0.48,-0.4734 -0.48,-1.1245 0,-0.6806 0.48,-1.1836 0.5,-0.5031 1.15,-0.5031 z" style="font-style:normal;font-variant:normal;font-weight:normal;font-stretch:normal;font-family:FreeSerif;-inkscape-font-specification:FreeSerif;fill:#ffffff;fill-opacity:1;stroke-width:1.3152px" id="path4812" inkscape:connector-curvature="0" />
    <path d="m 175.09,-11.634 q 0,-3.285 1.92,-5.297 1.96,-2.012 4.56,-2.012 1.87,0 3.2,0.917 1.36,0.888 1.36,2.131 0,0.503 -0.42,0.888 -0.41,0.355 -1,0.355 -1.01,0 -1.39,-1.361 l -0.18,-0.651 q -0.24,-0.829 -0.59,-1.125 -0.36,-0.296 -1.16,-0.296 -1.8,0 -2.93,1.45 -1.09,1.421 -1.09,3.699 0,2.545 1.27,4.1726 1.3,1.598 3.32,1.598 1.27,0 2.19,-0.5919 0.91,-0.6214 1.98,-2.1898 l 0.41,0.2664 q -0.29,0.5918 -0.53,0.9765 -0.21,0.3847 -0.8,1.1541 -0.56,0.7694 -1.12,1.2429 -0.57,0.4734 -1.48,0.8877 -0.92,0.3847 -1.9,0.3847 -2.45,0 -4.05,-1.8347 -1.57,-1.8643 -1.57,-4.7645 z" style="font-style:normal;font-variant:normal;font-weight:normal;font-stretch:normal;font-family:FreeSerif;-inkscape-font-specification:FreeSerif;fill:#ffffff;fill-opacity:1;stroke-width:1.3152px" id="path4814" inkscape:connector-curvature="0" />
    <path d="m 194.46,-18.943 q 2.84,0 4.68,1.894 1.83,1.894 1.83,4.794 0,3.0773 -1.89,5.1488 -1.9,2.0714 -4.68,2.0714 -2.78,0 -4.64,-1.9827 -1.84,-2.0122 -1.84,-5.0015 0,-3.048 1.81,-4.971 1.83,-1.953 4.73,-1.953 z m -3.87,5.474 q 0,3.167 1.15,5.3862 1.15,2.2194 3.02,2.2194 1.65,0 2.6,-1.4204 0.95,-1.4204 0.95,-3.9362 0,-3.048 -1.19,-4.971 -1.18,-1.924 -3.04,-1.924 -1.57,0 -2.55,1.273 -0.94,1.272 -0.94,3.373 z" style="font-style:normal;font-variant:normal;font-weight:normal;font-stretch:normal;font-family:FreeSerif;-inkscape-font-specification:FreeSerif;fill:#ffffff;fill-opacity:1;stroke-width:1.3152px" id="path4816" inkscape:connector-curvature="0" />
    <path d="m 201.78,-17.108 v -0.503 q 2.14,-0.592 4.15,-1.332 l 0.2,0.06 v 2.22 q 1.84,-1.391 2.73,-1.835 0.89,-0.444 1.86,-0.444 2.34,0 3.14,2.486 2.31,-2.486 4.82,-2.486 3.43,0 3.43,5.267 v 6.0963 q 0,1.6572 1.28,1.7459 l 0.77,0.059 v 0.4439 h -6.48 v -0.4439 q 1.3,-0.1479 1.62,-0.503 0.33,-0.3552 0.33,-1.6276 v -6.2436 q 0,-1.835 -0.47,-2.545 -0.48,-0.71 -1.75,-0.71 -1.95,0 -3.23,1.805 v 7.4568 q 0,1.3909 0.42,1.8644 0.44,0.4734 1.71,0.503 v 0.4439 h -6.62 v -0.4439 q 1.27,-0.089 1.62,-0.4735 0.39,-0.3847 0.39,-1.6275 v -6.4212 q 0,-3.107 -1.95,-3.107 -0.83,0 -1.87,0.414 -1.01,0.414 -1.63,1.332 v 8.3444 q 0,0.8582 0.42,1.1837 0.41,0.2959 1.6,0.3551 v 0.4439 h -6.57 v -0.4439 q 1.24,-0.03 1.65,-0.4439 0.42,-0.4143 0.42,-1.6275 v -7.4868 q 0,-1.065 -0.24,-1.479 -0.21,-0.415 -0.8,-0.415 -0.44,0 -0.95,0.119 z" style="font-style:normal;font-variant:normal;font-weight:normal;font-stretch:normal;font-family:FreeSerif;-inkscape-font-specification:FreeSerif;fill:#ffffff;fill-opacity:1;stroke-width:1.3152px" id="path4818" inkscape:connector-curvature="0" />
    <path d="m 228.16,-8.2899 q 0.68,0 1.15,0.5031 0.51,0.503 0.51,1.1836 0,0.6511 -0.51,1.1245 -0.5,0.4735 -1.18,0.4735 -0.65,0 -1.12,-0.4735 -0.48,-0.4734 -0.48,-1.1245 0,-0.6806 0.48,-1.1836 0.5,-0.5031 1.15,-0.5031 z" style="font-style:normal;font-variant:normal;font-weight:normal;font-stretch:normal;font-family:FreeSerif;-inkscape-font-specification:FreeSerif;fill:#ffffff;fill-opacity:1;stroke-width:1.3152px" id="path4820" inkscape:connector-curvature="0" />
    <path d="m 232.6,-8.2011 q 0,-0.5327 0.12,-0.9766 0.12,-0.4735 0.41,-0.8583 0.3,-0.414 0.56,-0.74 0.27,-0.325 0.8,-0.651 0.54,-0.355 0.89,-0.562 0.36,-0.237 1.07,-0.533 0.74,-0.325 1.12,-0.473 0.39,-0.178 1.21,-0.503 0.83,-0.326 1.22,-0.474 v -1.805 q 0,-2.456 -2.25,-2.456 -0.89,0 -1.51,0.444 -0.62,0.414 -0.62,1.006 0,0.237 0.1,0.651 0.1,0.414 0.1,0.533 0,0.503 -0.42,0.888 -0.38,0.355 -0.92,0.355 -0.5,0 -0.88,-0.385 -0.39,-0.385 -0.39,-0.888 0,-1.391 1.42,-2.338 1.45,-0.976 3.55,-0.976 2.43,0 3.35,1.184 0.91,1.154 0.91,3.551 v 5.7701 q 0,0.9766 0.18,1.3613 0.21,0.3551 0.71,0.3551 0.62,0 1.3,-0.5623 v 0.7694 q -0.77,0.8582 -1.36,1.1837 -0.56,0.2959 -1.3,0.2959 -0.92,0 -1.36,-0.503 -0.42,-0.5031 -0.53,-1.6572 -2.55,2.1602 -4.32,2.1602 -1.37,0 -2.25,-0.8877 -0.86,-0.8878 -0.86,-2.2786 z m 7.4,-0.7694 v -4.2905 q -2.67,0.976 -3.73,1.894 -1.07,0.917 -1.07,2.2189 0,1.2133 0.59,1.8051 0.6,0.5919 1.28,0.5919 1,0 2.16,-0.6806 0.47,-0.2664 0.62,-0.5623 0.15,-0.2959 0.15,-0.9765 z" style="font-style:normal;font-variant:normal;font-weight:normal;font-stretch:normal;font-family:FreeSerif;-inkscape-font-specification:FreeSerif;fill:#ffffff;fill-opacity:1;stroke-width:1.3152px" id="path4822" inkscape:connector-curvature="0" />
    <path d="m 253.66,-16.043 q -0.45,0 -1.1,-0.503 -0.65,-0.533 -0.86,-0.533 -0.59,0 -1.33,0.858 -0.74,0.859 -0.74,1.569 v 6.658 q 0,1.2725 0.5,1.7164 0.51,0.4438 2.02,0.503 v 0.4439 h -7.11 v -0.4439 q 1.42,-0.2663 1.75,-0.5918 0.35,-0.3255 0.35,-1.45 v -7.3976 q 0,-0.977 -0.23,-1.362 -0.21,-0.414 -0.77,-0.414 -0.47,0 -1.04,0.118 v -0.473 q 2.37,-0.77 4.38,-1.598 l 0.15,0.06 v 2.723 q 1.1,-1.569 1.86,-2.161 0.77,-0.621 1.69,-0.621 0.77,0 1.19,0.414 0.44,0.414 0.44,1.154 0,0.622 -0.33,0.977 -0.29,0.355 -0.82,0.355 z" style="font-style:normal;font-variant:normal;font-weight:normal;font-stretch:normal;font-family:FreeSerif;-inkscape-font-specification:FreeSerif;fill:#ffffff;fill-opacity:1;stroke-width:1.3152px" id="path4824" inkscape:connector-curvature="0" />
   </g>
   <text id="text4802" y="85.692" x="-79.429" style="font-style:normal;font-weight:normal;font-size:29.59213px;line-height:125%;font-family:sans-serif;letter-spacing:0px;word-spacing:0px;fill:#ffffff;fill-opacity:1;stroke:none;stroke-width:1.3152px;stroke-linecap:butt;stroke-linejoin:miter;stroke-opacity:1" xml:space="preserve"><tspan style="font-style:normal;font-variant:normal;font-weight:normal;font-stretch:normal;font-family:FreeSerif;-inkscape-font-specification:FreeSerif;fill:#ffffff;fill-opacity:1;stroke-width:1.3152px" y="85.692" x="-79.429" id="tspan4800" sodipodi:role="line">os.com.ar</tspan></text>
  </g>
 </g>
</svg>
