<?xml version="1.0" encoding="UTF-8" standalone="no"?>
<svg xmlns:dc="http://purl.org/dc/elements/1.1/" xmlns:cc="http://creativecommons.org/ns#" xmlns:rdf="http://www.w3.org/1999/02/22-rdf-syntax-ns#" xmlns:svg="http://www.w3.org/2000/svg" xmlns="http://www.w3.org/2000/svg" xmlns:sodipodi="http://sodipodi.sourceforge.net/DTD/sodipodi-0.dtd" xmlns:inkscape="http://www.inkscape.org/namespaces/inkscape" height="30" width="30" version="1.1" x="0px" y="0px" viewBox="0 0 10 10" xml:space="preserve" id="svg6" sodipodi:docname="sidebar-tags-icon.svg" inkscape:version="0.92.5 (2060ec1f9f, 2020-04-08)" style="fill:#ffffff"><metadata id="metadata12"><rdf:RDF><cc:Work rdf:about=""><dc:format>image/svg+xml</dc:format><dc:type rdf:resource="http://purl.org/dc/dcmitype/StillImage" /><dc:title></dc:title></cc:Work></rdf:RDF></metadata><defs id="defs10" /><sodipodi:namedview pagecolor="#dddddd" bordercolor="#666666" borderopacity="1" objecttolerance="10" gridtolerance="10" guidetolerance="10" inkscape:pageopacity="1" inkscape:pageshadow="2" inkscape:window-width="1920" inkscape:window-height="1005" id="namedview8" showgrid="false" inkscape:zoom="8.00000002" inkscape:cx="-2.75567071" inkscape:cy="3.14543177" inkscape:window-x="1920" inkscape:window-y="38" inkscape:window-maximized="1" inkscape:current-layer="g4758" /><g id="g4758" transform="matrix(0.09946,0,0,0.09946,0.0272,8.9791)"><g id="g865" transform="rotate(45,66.0340884,212.325717)"><g transform="matrix(2.831132,-2.831132,2.831132,2.831132,-3103.10958,-2877.51641)" id="g860" inkscape:label="Capa 1" style="fill:#909090;fill-opacity:1"><path sodipodi:nodetypes="cccccccccccccccccccccccccccccccc" inkscape:connector-curvature="0" id="path858" transform="translate(0,1032.3622)" d="M 19.2558594,0.189453125 C 19.2552065,0.190102367 19.2545555,0.190753411 19.2539062,0.19140625 L 10.7929688,1.203125 C 10.6814415,1.21618953 10.5775573,1.26641169 10.4980469,1.34570312 L 0.333984375,11.5097656 C 0.138800144,11.7050305 0.138800144,12.021532 0.333984375,12.2167969 L 7.78320312,19.6660156 C 7.97846805,19.8611998 8.29496945,19.8611998 8.49023438,19.6660156 L 18.65625,9.50195312 C 18.7355414,9.42244276 18.7857636,9.31855857 18.7988281,9.20703125 L 19.8085938,0.748046875 C 19.8439128,0.448593394 19.6081525,0.186229847 19.3066406,0.189453125 19.2897245,0.188593079 19.2727755,0.188593079 19.2558594,0.189453125 Z M 14.4296875,2.48046875 C 15.4984647,2.4268617 16.5122843,2.95694878 17.078125,3.86523438 17.9335895,5.23947381 17.5202087,7.04648873 16.1523438,7.91210938 14.7840762,8.77831984 12.973201,8.37793847 12.0976562,7.015625 11.2223059,5.6532439 11.6104694,3.83977923 12.9667969,2.95507812 L 13.0371094,2.91015625 C 13.4579978,2.65257613 13.9368374,2.50482755 14.4296875,2.48046875 Z M 6.42773438,8.01171875 C 6.56321755,8.01171874 6.69290211,8.06669371 6.78710938,8.1640625 L 11.8378906,13.2148438 C 12.3287172,13.6860982 11.6021138,14.4127016 11.1308594,13.921875 L 6.08007812,8.87109375 C 5.75714741,8.5585586 5.97833205,8.01181007 6.42773438,8.01171875 Z M 3.96484375,10.4746094 C 4.10004021,10.4740966 4.22968307,10.5283493 4.32421875,10.625 L 9.375,15.6757812 C 9.84765606,16.1471352 9.14062481,16.8561196 8.66796875,16.3847656 L 3.6171875,11.3339844 C 3.2942568,11.0214493 3.51544143,10.4747007 3.96484375,10.4746094 Z" style="opacity:1;fill:#909090;fill-opacity:1;stroke:none;stroke-width:1;stroke-linecap:round;stroke-linejoin:round;stroke-miterlimit:4;stroke-dasharray:none;stroke-dashoffset:0;stroke-opacity:1" /></g><path inkscape:connector-curvature="0" style="opacity:1;fill:#646464;fill-opacity:1;stroke:none;stroke-width:4.003825188;stroke-linecap:round;stroke-linejoin:round;stroke-miterlimit:4;stroke-dasharray:none;stroke-dashoffset:0;stroke-opacity:1" d="M -123.627957,-9.47538846 C -123.157938,-9.44318146 -122.691556,-9.28643176 -122.331896,-8.91899856 -122.281569,-8.87354176 -122.233345,-8.82531836 -122.187889,-8.77499176 -122.187879,-8.77130526 -122.187879,-8.76558676 -122.187889,-8.76190026 L -101.097438,18.0560939 C -100.818677,18.40883 -100.666037,18.8436544 -100.665417,19.2932435 V 76.8435987 C -100.665646,77.9490116 -101.563008,78.8463741 -102.668421,78.8466023 H -123.627957 V 67.0511361 H -109.462924 C -107.663836,67.0805674 -106.744251,64.9068232 -108.01631,63.6342473 -108.397618,63.2500365 -108.915104,63.0391407 -109.456378,63.0451287 H -123.627957 V 53.1086591 H -109.462924 C -107.663836,53.1380903 -106.744251,50.9643465 -108.01631,49.6917705 -108.399881,49.3081996 -108.920547,49.093701 -109.462924,49.1026516 H -123.627957 V 31.0887097 C -122.841233,31.0796112 -122.043959,30.9875085 -121.245299,30.8137878 -114.909986,29.4349393 -110.876908,23.2028671 -112.212145,16.8582194 L -112.284148,16.530931 C -112.746495,14.6100971 -113.680825,12.8371559 -115.007186,11.3728692 -117.240607,8.90357194 -120.381797,7.54730684 -123.627957,7.51086854 Z" id="path856" /></g></g></svg>