<?xml version="1.0" encoding="UTF-8" standalone="no"?>
<!-- Created with Inkscape (http://www.inkscape.org/) -->

<svg xmlns:dc="http://purl.org/dc/elements/1.1/" xmlns:cc="http://creativecommons.org/ns#" xmlns:rdf="http://www.w3.org/1999/02/22-rdf-syntax-ns#" xmlns:svg="http://www.w3.org/2000/svg" xmlns="http://www.w3.org/2000/svg" xmlns:xlink="http://www.w3.org/1999/xlink" xmlns:sodipodi="http://sodipodi.sourceforge.net/DTD/sodipodi-0.dtd" xmlns:inkscape="http://www.inkscape.org/namespaces/inkscape" width="300" height="300" viewBox="0 0 300 300" id="svg4220" version="1.1" inkscape:version="0.92.5 (2060ec1f9f, 2020-04-08)" sodipodi:docname="tagfolder-icon.svg">
 <defs id="defs4222">
  <linearGradient inkscape:collect="always" id="linearGradient4759">
   <stop style="stop-color:#6c8faa;stop-opacity:1" offset="0" id="stop4755" />
   <stop style="stop-color:#005e99;stop-opacity:1" offset="1" id="stop4757" />
  </linearGradient>
  <linearGradient inkscape:collect="always" xlink:href="#linearGradient4759" id="linearGradient4761" x1="419.556885" y1="494.541504" x2="419.556885" y2="514.597229" gradientUnits="userSpaceOnUse" />
 </defs>
 <sodipodi:namedview id="base" pagecolor="#ffffff" bordercolor="#666666" borderopacity="1.0" inkscape:pageopacity="0.0" inkscape:pageshadow="2" inkscape:zoom="0.494974745" inkscape:cx="220.798548" inkscape:cy="395.745354" inkscape:document-units="px" inkscape:current-layer="layer1-5" showgrid="false" units="px" inkscape:window-width="960" inkscape:window-height="1025" inkscape:window-x="960" inkscape:window-y="0" inkscape:window-maximized="0" />
 <metadata id="metadata4225">
  <rdf:RDF>
   <cc:Work rdf:about="">
    <dc:format>image/svg+xml</dc:format>
    <dc:type rdf:resource="http://purl.org/dc/dcmitype/StillImage" />
    <dc:title />
   </cc:Work>
  </rdf:RDF>
 </metadata>
 <g inkscape:label="Capa 1" inkscape:groupmode="layer" id="layer1" transform="translate(0,-752.36216)">
  <g transform="matrix(4.5834243,0,0,4.5834243,-1759.3236,-1461.7589)" id="layer1-5" inkscape:label="Capa 1">
   <g id="g4755" style="stroke:#000000;stroke-opacity:0.145098045;stroke-width:1.527242416;stroke-miterlimit:4;stroke-dasharray:none;paint-order:stroke fill markers">
    <path style="fill:url(#linearGradient4761);fill-opacity:1;stroke:#000000;stroke-opacity:0.145098045;stroke-width:1.527242416;stroke-miterlimit:4;stroke-dasharray:none;paint-order:stroke fill markers" d="m 388.57143,489.79812 0,5 0,22 c 0,0.55373 0.446,1 1,1 l 54,0 c 0.55399,0 1,-0.44627 1,-1 l 0,-21.99023 c 0,-0.003 -0.002,-0.006 -0.002,-0.01 l 0.002,0 0,-1 -28,0 -4,-4 -24,0 z" id="rect4180" inkscape:connector-curvature="0" sodipodi:nodetypes="ccsssssccccccc" />
    <path style="fill:#56a5d0;fill-opacity:1;stroke:#000000;stroke-opacity:0.145098045;stroke-width:1.527242416;stroke-miterlimit:4;stroke-dasharray:none;paint-order:stroke fill markers" d="M 410.57143,499.79812 387.554499,499.773801 387.57143,503.79812 V 504.79812 H 387.57343 C 387.57338,504.80212 387.57143,504.80612 387.57143,504.80982 L 389.149321,540.7981 V 541.7981 H 390.094911 443.047949 443.993539 V 540.7981 L 445.57143,504.80982 V 504.79812 499.79812 Z" id="rect4113-0" inkscape:connector-curvature="0" sodipodi:nodetypes="cccccscccccccccc" />
    <path inkscape:connector-curvature="0" style="fill:#000000;fill-opacity:0.235294118;stroke:#000000;stroke-width:1.527242416;stroke-opacity:0.145098045;stroke-miterlimit:4;stroke-dasharray:none;paint-order:stroke fill markers" d="M 389.149321,540.7981 V 541.7981 H 390.094911 443.047949 443.993539 V 540.7981 H 443.047949 390.094911 Z" id="path4151-2-9" />
   </g>
   <g transform="matrix(1.14710087,0,0,1.14710087,417.797773,-680.902512)" id="layer1-6" inkscape:label="Capa 1">
    <path sodipodi:nodetypes="cccccccccccccccccccccccccccccccc" inkscape:connector-curvature="0" id="rect4142" transform="translate(0,1032.3622)" d="M 19.2558594,0.189453125 C 19.2552065,0.190102367 19.2545555,0.190753411 19.2539062,0.19140625 L 10.7929688,1.203125 C 10.6814415,1.21618953 10.5775573,1.26641169 10.4980469,1.34570312 L 0.333984375,11.5097656 C 0.138800144,11.7050305 0.138800144,12.021532 0.333984375,12.2167969 L 7.78320312,19.6660156 C 7.97846805,19.8611998 8.29496945,19.8611998 8.49023438,19.6660156 L 18.65625,9.50195312 C 18.7355414,9.42244276 18.7857636,9.31855857 18.7988281,9.20703125 L 19.8085938,0.748046875 C 19.8439128,0.448593394 19.6081525,0.186229847 19.3066406,0.189453125 19.2897245,0.188593079 19.2727755,0.188593079 19.2558594,0.189453125 Z M 14.4296875,2.48046875 C 15.4984647,2.4268617 16.5122843,2.95694878 17.078125,3.86523438 17.9335895,5.23947381 17.5202087,7.04648873 16.1523438,7.91210938 14.7840762,8.77831984 12.973201,8.37793847 12.0976562,7.015625 11.2223059,5.6532439 11.6104694,3.83977923 12.9667969,2.95507812 L 13.0371094,2.91015625 C 13.4579978,2.65257613 13.9368374,2.50482755 14.4296875,2.48046875 Z M 6.42773438,8.01171875 C 6.56321755,8.01171874 6.69290211,8.06669371 6.78710938,8.1640625 L 11.8378906,13.2148438 C 12.3287172,13.6860982 11.6021138,14.4127016 11.1308594,13.921875 L 6.08007812,8.87109375 C 5.75714741,8.5585586 5.97833205,8.01181007 6.42773438,8.01171875 Z M 3.96484375,10.4746094 C 4.10004021,10.4740966 4.22968307,10.5283493 4.32421875,10.625 L 9.375,15.6757812 C 9.84765606,16.1471352 9.14062481,16.8561196 8.66796875,16.3847656 L 3.6171875,11.3339844 C 3.2942568,11.0214493 3.51544143,10.4747007 3.96484375,10.4746094 Z" style="opacity:1;fill:#ffffff;fill-opacity:1;stroke:none;stroke-width:1;stroke-linecap:round;stroke-linejoin:round;stroke-miterlimit:4;stroke-dasharray:none;stroke-dashoffset:0;stroke-opacity:1" />
   </g>
  </g>
 </g>
</svg>
